<?xml version="1.0" encoding="UTF-8" standalone="no"?>
<!DOCTYPE svg PUBLIC "-//W3C//DTD SVG 1.1//EN"
 "http://www.w3.org/Graphics/SVG/1.1/DTD/svg11.dtd">
<!-- Generated by graphviz version 2.40.1 (20161225.0304)
 -->
<!-- Title: snakemake_dag Pages: 1 -->
<svg width="2372pt" height="337pt"
 viewBox="0.00 0.00 2372.00 337.00" xmlns="http://www.w3.org/2000/svg" xmlns:xlink="http://www.w3.org/1999/xlink">
<g id="graph0" class="graph" transform="scale(1 1) rotate(0) translate(4 333)">
<title>snakemake_dag</title>
<polygon fill="#ffffff" stroke="transparent" points="-4,4 -4,-333 2368,-333 2368,4 -4,4"/>
<!-- 0 -->
<g id="node1" class="node">
<title>0</title>
<path fill="none" stroke="#56d87b" stroke-width="2" d="M1170,-36C1170,-36 1140,-36 1140,-36 1134,-36 1128,-30 1128,-24 1128,-24 1128,-12 1128,-12 1128,-6 1134,0 1140,0 1140,0 1170,0 1170,0 1176,0 1182,-6 1182,-12 1182,-12 1182,-24 1182,-24 1182,-30 1176,-36 1170,-36"/>
<text text-anchor="middle" x="1155" y="-15.5" font-family="sans" font-size="10.00" fill="#000000">DESeq</text>
</g>
<!-- 1 -->
<g id="node2" class="node">
<title>1</title>
<path fill="none" stroke="#c6d856" stroke-width="2" stroke-dasharray="5,2" d="M1170,-108C1170,-108 1140,-108 1140,-108 1134,-108 1128,-102 1128,-96 1128,-96 1128,-84 1128,-84 1128,-78 1134,-72 1140,-72 1140,-72 1170,-72 1170,-72 1176,-72 1182,-78 1182,-84 1182,-84 1182,-96 1182,-96 1182,-102 1176,-108 1170,-108"/>
<text text-anchor="middle" x="1155" y="-87.5" font-family="sans" font-size="10.00" fill="#000000">prepDE</text>
</g>
<!-- 1&#45;&gt;0 -->
<g id="edge1" class="edge">
<title>1&#45;&gt;0</title>
<path fill="none" stroke="#c0c0c0" stroke-width="2" d="M1155,-71.8314C1155,-64.131 1155,-54.9743 1155,-46.4166"/>
<polygon fill="#c0c0c0" stroke="#c0c0c0" stroke-width="2" points="1158.5001,-46.4132 1155,-36.4133 1151.5001,-46.4133 1158.5001,-46.4132"/>
</g>
<!-- 2 -->
<g id="node3" class="node">
<title>2</title>
<path fill="none" stroke="#56a2d8" stroke-width="2" stroke-dasharray="5,2" d="M63.5,-180C63.5,-180 30.5,-180 30.5,-180 24.5,-180 18.5,-174 18.5,-168 18.5,-168 18.5,-156 18.5,-156 18.5,-150 24.5,-144 30.5,-144 30.5,-144 63.5,-144 63.5,-144 69.5,-144 75.5,-150 75.5,-156 75.5,-156 75.5,-168 75.5,-168 75.5,-174 69.5,-180 63.5,-180"/>
<text text-anchor="middle" x="47" y="-159.5" font-family="sans" font-size="10.00" fill="#000000">stringtie</text>
</g>
<!-- 2&#45;&gt;1 -->
<g id="edge2" class="edge">
<title>2&#45;&gt;1</title>
<path fill="none" stroke="#c0c0c0" stroke-width="2" d="M75.6345,-159.4058C116.9807,-155.7073 195.8159,-148.8323 263,-144 594.216,-120.1768 995.1319,-98.4416 1117.6589,-91.9566"/>
<polygon fill="#c0c0c0" stroke="#c0c0c0" stroke-width="2" points="1118.181,-95.434 1127.9825,-91.4114 1117.8119,-88.4437 1118.181,-95.434"/>
</g>
<!-- 3 -->
<g id="node4" class="node">
<title>3</title>
<path fill="none" stroke="#d8a456" stroke-width="2" stroke-dasharray="5,2" d="M65,-252C65,-252 27,-252 27,-252 21,-252 15,-246 15,-240 15,-240 15,-228 15,-228 15,-222 21,-216 27,-216 27,-216 65,-216 65,-216 71,-216 77,-222 77,-228 77,-228 77,-240 77,-240 77,-246 71,-252 65,-252"/>
<text text-anchor="middle" x="46" y="-231.5" font-family="sans" font-size="10.00" fill="#000000">sort_sam</text>
</g>
<!-- 3&#45;&gt;2 -->
<g id="edge23" class="edge">
<title>3&#45;&gt;2</title>
<path fill="none" stroke="#c0c0c0" stroke-width="2" d="M46.2523,-215.8314C46.3593,-208.131 46.4865,-198.9743 46.6053,-190.4166"/>
<polygon fill="#c0c0c0" stroke="#c0c0c0" stroke-width="2" points="50.1049,-190.4609 46.7443,-180.4133 43.1056,-190.3637 50.1049,-190.4609"/>
</g>
<!-- 4 -->
<g id="node5" class="node">
<title>4</title>
<path fill="none" stroke="#56d8c9" stroke-width="2" stroke-dasharray="5,2" d="M80,-329C80,-329 12,-329 12,-329 6,-329 0,-323 0,-317 0,-317 0,-300 0,-300 0,-294 6,-288 12,-288 12,-288 80,-288 80,-288 86,-288 92,-294 92,-300 92,-300 92,-317 92,-317 92,-323 86,-329 80,-329"/>
<text text-anchor="middle" x="46" y="-317" font-family="sans" font-size="10.00" fill="#000000">hisat2</text>
<text text-anchor="middle" x="46" y="-306" font-family="sans" font-size="10.00" fill="#000000">expansion: 1</text>
<text text-anchor="middle" x="46" y="-295" font-family="sans" font-size="10.00" fill="#000000">sample: Leaf51</text>
</g>
<!-- 4&#45;&gt;3 -->
<g id="edge24" class="edge">
<title>4&#45;&gt;3</title>
<path fill="none" stroke="#c0c0c0" stroke-width="2" d="M46,-287.7476C46,-279.8767 46,-270.7743 46,-262.3232"/>
<polygon fill="#c0c0c0" stroke="#c0c0c0" stroke-width="2" points="49.5001,-262.1086 46,-252.1087 42.5001,-262.1087 49.5001,-262.1086"/>
</g>
<!-- 5 -->
<g id="node6" class="node">
<title>5</title>
<path fill="none" stroke="#56a2d8" stroke-width="2" stroke-dasharray="5,2" d="M317.5,-180C317.5,-180 284.5,-180 284.5,-180 278.5,-180 272.5,-174 272.5,-168 272.5,-168 272.5,-156 272.5,-156 272.5,-150 278.5,-144 284.5,-144 284.5,-144 317.5,-144 317.5,-144 323.5,-144 329.5,-150 329.5,-156 329.5,-156 329.5,-168 329.5,-168 329.5,-174 323.5,-180 317.5,-180"/>
<text text-anchor="middle" x="301" y="-159.5" font-family="sans" font-size="10.00" fill="#000000">stringtie</text>
</g>
<!-- 5&#45;&gt;1 -->
<g id="edge3" class="edge">
<title>5&#45;&gt;1</title>
<path fill="none" stroke="#c0c0c0" stroke-width="2" d="M329.682,-157.378C355.3777,-153.3703 394.125,-147.6546 428,-144 691.6486,-115.5566 1010.7187,-97.4998 1117.8836,-91.8808"/>
<polygon fill="#c0c0c0" stroke="#c0c0c0" stroke-width="2" points="1118.0699,-95.376 1127.8745,-91.3609 1117.7061,-88.3854 1118.0699,-95.376"/>
</g>
<!-- 6 -->
<g id="node7" class="node">
<title>6</title>
<path fill="none" stroke="#d8a456" stroke-width="2" stroke-dasharray="5,2" d="M190,-252C190,-252 152,-252 152,-252 146,-252 140,-246 140,-240 140,-240 140,-228 140,-228 140,-222 146,-216 152,-216 152,-216 190,-216 190,-216 196,-216 202,-222 202,-228 202,-228 202,-240 202,-240 202,-246 196,-252 190,-252"/>
<text text-anchor="middle" x="171" y="-231.5" font-family="sans" font-size="10.00" fill="#000000">sort_sam</text>
</g>
<!-- 6&#45;&gt;5 -->
<g id="edge25" class="edge">
<title>6&#45;&gt;5</title>
<path fill="none" stroke="#c0c0c0" stroke-width="2" d="M202.1382,-216.7542C220.5545,-206.5544 244.0024,-193.5679 263.4402,-182.8024"/>
<polygon fill="#c0c0c0" stroke="#c0c0c0" stroke-width="2" points="265.2855,-185.7813 272.3377,-177.8745 261.894,-179.6578 265.2855,-185.7813"/>
</g>
<!-- 7 -->
<g id="node8" class="node">
<title>7</title>
<path fill="none" stroke="#56d8c9" stroke-width="2" stroke-dasharray="5,2" d="M190,-329C190,-329 122,-329 122,-329 116,-329 110,-323 110,-317 110,-317 110,-300 110,-300 110,-294 116,-288 122,-288 122,-288 190,-288 190,-288 196,-288 202,-294 202,-300 202,-300 202,-317 202,-317 202,-323 196,-329 190,-329"/>
<text text-anchor="middle" x="156" y="-317" font-family="sans" font-size="10.00" fill="#000000">hisat2</text>
<text text-anchor="middle" x="156" y="-306" font-family="sans" font-size="10.00" fill="#000000">expansion: 2</text>
<text text-anchor="middle" x="156" y="-295" font-family="sans" font-size="10.00" fill="#000000">sample: Leaf51</text>
</g>
<!-- 7&#45;&gt;6 -->
<g id="edge26" class="edge">
<title>7&#45;&gt;6</title>
<path fill="none" stroke="#c0c0c0" stroke-width="2" d="M160.1783,-287.7476C161.7807,-279.7892 163.6365,-270.5718 165.354,-262.0418"/>
<polygon fill="#c0c0c0" stroke="#c0c0c0" stroke-width="2" points="168.8112,-262.6028 167.354,-252.1087 161.9489,-261.2211 168.8112,-262.6028"/>
</g>
<!-- 8 -->
<g id="node9" class="node">
<title>8</title>
<path fill="none" stroke="#56a2d8" stroke-width="2" stroke-dasharray="5,2" d="M482.5,-180C482.5,-180 449.5,-180 449.5,-180 443.5,-180 437.5,-174 437.5,-168 437.5,-168 437.5,-156 437.5,-156 437.5,-150 443.5,-144 449.5,-144 449.5,-144 482.5,-144 482.5,-144 488.5,-144 494.5,-150 494.5,-156 494.5,-156 494.5,-168 494.5,-168 494.5,-174 488.5,-180 482.5,-180"/>
<text text-anchor="middle" x="466" y="-159.5" font-family="sans" font-size="10.00" fill="#000000">stringtie</text>
</g>
<!-- 8&#45;&gt;1 -->
<g id="edge4" class="edge">
<title>8&#45;&gt;1</title>
<path fill="none" stroke="#c0c0c0" stroke-width="2" d="M494.6731,-154.7667C510.3394,-151.0527 530.1364,-146.7438 548,-144 762.4378,-111.0628 1022.8124,-96.244 1117.938,-91.6509"/>
<polygon fill="#c0c0c0" stroke="#c0c0c0" stroke-width="2" points="1118.1053,-95.147 1127.9282,-91.177 1117.7736,-88.1549 1118.1053,-95.147"/>
</g>
<!-- 9 -->
<g id="node10" class="node">
<title>9</title>
<path fill="none" stroke="#d8a456" stroke-width="2" stroke-dasharray="5,2" d="M300,-252C300,-252 262,-252 262,-252 256,-252 250,-246 250,-240 250,-240 250,-228 250,-228 250,-222 256,-216 262,-216 262,-216 300,-216 300,-216 306,-216 312,-222 312,-228 312,-228 312,-240 312,-240 312,-246 306,-252 300,-252"/>
<text text-anchor="middle" x="281" y="-231.5" font-family="sans" font-size="10.00" fill="#000000">sort_sam</text>
</g>
<!-- 9&#45;&gt;8 -->
<g id="edge27" class="edge">
<title>9&#45;&gt;8</title>
<path fill="none" stroke="#c0c0c0" stroke-width="2" d="M312.3827,-221.7862C344.19,-209.4071 393.4485,-190.2363 427.5742,-176.9549"/>
<polygon fill="#c0c0c0" stroke="#c0c0c0" stroke-width="2" points="429.1567,-180.0948 437.2064,-173.2062 426.6179,-173.5714 429.1567,-180.0948"/>
</g>
<!-- 10 -->
<g id="node11" class="node">
<title>10</title>
<path fill="none" stroke="#56d8c9" stroke-width="2" stroke-dasharray="5,2" d="M300,-329C300,-329 232,-329 232,-329 226,-329 220,-323 220,-317 220,-317 220,-300 220,-300 220,-294 226,-288 232,-288 232,-288 300,-288 300,-288 306,-288 312,-294 312,-300 312,-300 312,-317 312,-317 312,-323 306,-329 300,-329"/>
<text text-anchor="middle" x="266" y="-317" font-family="sans" font-size="10.00" fill="#000000">hisat2</text>
<text text-anchor="middle" x="266" y="-306" font-family="sans" font-size="10.00" fill="#000000">expansion: 3</text>
<text text-anchor="middle" x="266" y="-295" font-family="sans" font-size="10.00" fill="#000000">sample: Leaf51</text>
</g>
<!-- 10&#45;&gt;9 -->
<g id="edge28" class="edge">
<title>10&#45;&gt;9</title>
<path fill="none" stroke="#c0c0c0" stroke-width="2" d="M270.1783,-287.7476C271.7807,-279.7892 273.6365,-270.5718 275.354,-262.0418"/>
<polygon fill="#c0c0c0" stroke="#c0c0c0" stroke-width="2" points="278.8112,-262.6028 277.354,-252.1087 271.9489,-261.2211 278.8112,-262.6028"/>
</g>
<!-- 11 -->
<g id="node12" class="node">
<title>11</title>
<path fill="none" stroke="#56a2d8" stroke-width="2" stroke-dasharray="5,2" d="M602.5,-180C602.5,-180 569.5,-180 569.5,-180 563.5,-180 557.5,-174 557.5,-168 557.5,-168 557.5,-156 557.5,-156 557.5,-150 563.5,-144 569.5,-144 569.5,-144 602.5,-144 602.5,-144 608.5,-144 614.5,-150 614.5,-156 614.5,-156 614.5,-168 614.5,-168 614.5,-174 608.5,-180 602.5,-180"/>
<text text-anchor="middle" x="586" y="-159.5" font-family="sans" font-size="10.00" fill="#000000">stringtie</text>
</g>
<!-- 11&#45;&gt;1 -->
<g id="edge5" class="edge">
<title>11&#45;&gt;1</title>
<path fill="none" stroke="#c0c0c0" stroke-width="2" d="M614.5263,-152.0983C624.1104,-149.0944 634.9258,-146.0506 645,-144 819.6592,-108.4489 1033.0216,-95.4776 1117.7526,-91.5115"/>
<polygon fill="#c0c0c0" stroke="#c0c0c0" stroke-width="2" points="1118.0743,-95.0006 1127.9054,-91.051 1117.7571,-88.0078 1118.0743,-95.0006"/>
</g>
<!-- 12 -->
<g id="node13" class="node">
<title>12</title>
<path fill="none" stroke="#d8a456" stroke-width="2" stroke-dasharray="5,2" d="M410,-252C410,-252 372,-252 372,-252 366,-252 360,-246 360,-240 360,-240 360,-228 360,-228 360,-222 366,-216 372,-216 372,-216 410,-216 410,-216 416,-216 422,-222 422,-228 422,-228 422,-240 422,-240 422,-246 416,-252 410,-252"/>
<text text-anchor="middle" x="391" y="-231.5" font-family="sans" font-size="10.00" fill="#000000">sort_sam</text>
</g>
<!-- 12&#45;&gt;11 -->
<g id="edge29" class="edge">
<title>12&#45;&gt;11</title>
<path fill="none" stroke="#c0c0c0" stroke-width="2" d="M422.3301,-222.432C456.3793,-209.8599 510.8138,-189.7611 547.4574,-176.2311"/>
<polygon fill="#c0c0c0" stroke="#c0c0c0" stroke-width="2" points="549.1207,-179.348 557.2893,-172.6009 546.696,-172.7813 549.1207,-179.348"/>
</g>
<!-- 13 -->
<g id="node14" class="node">
<title>13</title>
<path fill="none" stroke="#56d8c9" stroke-width="2" stroke-dasharray="5,2" d="M410,-329C410,-329 342,-329 342,-329 336,-329 330,-323 330,-317 330,-317 330,-300 330,-300 330,-294 336,-288 342,-288 342,-288 410,-288 410,-288 416,-288 422,-294 422,-300 422,-300 422,-317 422,-317 422,-323 416,-329 410,-329"/>
<text text-anchor="middle" x="376" y="-317" font-family="sans" font-size="10.00" fill="#000000">hisat2</text>
<text text-anchor="middle" x="376" y="-306" font-family="sans" font-size="10.00" fill="#000000">expansion: 1</text>
<text text-anchor="middle" x="376" y="-295" font-family="sans" font-size="10.00" fill="#000000">sample: Axenic</text>
</g>
<!-- 13&#45;&gt;12 -->
<g id="edge30" class="edge">
<title>13&#45;&gt;12</title>
<path fill="none" stroke="#c0c0c0" stroke-width="2" d="M380.1783,-287.7476C381.7807,-279.7892 383.6365,-270.5718 385.354,-262.0418"/>
<polygon fill="#c0c0c0" stroke="#c0c0c0" stroke-width="2" points="388.8112,-262.6028 387.354,-252.1087 381.9489,-261.2211 388.8112,-262.6028"/>
</g>
<!-- 14 -->
<g id="node15" class="node">
<title>14</title>
<path fill="none" stroke="#56a2d8" stroke-width="2" stroke-dasharray="5,2" d="M699.5,-180C699.5,-180 666.5,-180 666.5,-180 660.5,-180 654.5,-174 654.5,-168 654.5,-168 654.5,-156 654.5,-156 654.5,-150 660.5,-144 666.5,-144 666.5,-144 699.5,-144 699.5,-144 705.5,-144 711.5,-150 711.5,-156 711.5,-156 711.5,-168 711.5,-168 711.5,-174 705.5,-180 699.5,-180"/>
<text text-anchor="middle" x="683" y="-159.5" font-family="sans" font-size="10.00" fill="#000000">stringtie</text>
</g>
<!-- 14&#45;&gt;1 -->
<g id="edge6" class="edge">
<title>14&#45;&gt;1</title>
<path fill="none" stroke="#c0c0c0" stroke-width="2" d="M711.6844,-150.2407C718.2721,-147.8841 725.3089,-145.6339 732,-144 871.8398,-109.8517 1043.2742,-96.425 1117.6398,-91.9421"/>
<polygon fill="#c0c0c0" stroke="#c0c0c0" stroke-width="2" points="1118.1129,-95.4206 1127.8921,-91.3442 1117.7053,-88.4324 1118.1129,-95.4206"/>
</g>
<!-- 15 -->
<g id="node16" class="node">
<title>15</title>
<path fill="none" stroke="#d8a456" stroke-width="2" stroke-dasharray="5,2" d="M520,-252C520,-252 482,-252 482,-252 476,-252 470,-246 470,-240 470,-240 470,-228 470,-228 470,-222 476,-216 482,-216 482,-216 520,-216 520,-216 526,-216 532,-222 532,-228 532,-228 532,-240 532,-240 532,-246 526,-252 520,-252"/>
<text text-anchor="middle" x="501" y="-231.5" font-family="sans" font-size="10.00" fill="#000000">sort_sam</text>
</g>
<!-- 15&#45;&gt;14 -->
<g id="edge31" class="edge">
<title>15&#45;&gt;14</title>
<path fill="none" stroke="#c0c0c0" stroke-width="2" d="M532.2869,-221.6228C563.4603,-209.2904 611.372,-190.3364 644.7796,-177.1201"/>
<polygon fill="#c0c0c0" stroke="#c0c0c0" stroke-width="2" points="646.2076,-180.3192 654.2189,-173.3859 643.6325,-173.8101 646.2076,-180.3192"/>
</g>
<!-- 16 -->
<g id="node17" class="node">
<title>16</title>
<path fill="none" stroke="#56d8c9" stroke-width="2" stroke-dasharray="5,2" d="M520,-329C520,-329 452,-329 452,-329 446,-329 440,-323 440,-317 440,-317 440,-300 440,-300 440,-294 446,-288 452,-288 452,-288 520,-288 520,-288 526,-288 532,-294 532,-300 532,-300 532,-317 532,-317 532,-323 526,-329 520,-329"/>
<text text-anchor="middle" x="486" y="-317" font-family="sans" font-size="10.00" fill="#000000">hisat2</text>
<text text-anchor="middle" x="486" y="-306" font-family="sans" font-size="10.00" fill="#000000">expansion: 2</text>
<text text-anchor="middle" x="486" y="-295" font-family="sans" font-size="10.00" fill="#000000">sample: Axenic</text>
</g>
<!-- 16&#45;&gt;15 -->
<g id="edge32" class="edge">
<title>16&#45;&gt;15</title>
<path fill="none" stroke="#c0c0c0" stroke-width="2" d="M490.1783,-287.7476C491.7807,-279.7892 493.6365,-270.5718 495.354,-262.0418"/>
<polygon fill="#c0c0c0" stroke="#c0c0c0" stroke-width="2" points="498.8112,-262.6028 497.354,-252.1087 491.9489,-261.2211 498.8112,-262.6028"/>
</g>
<!-- 17 -->
<g id="node18" class="node">
<title>17</title>
<path fill="none" stroke="#56a2d8" stroke-width="2" stroke-dasharray="5,2" d="M785.5,-180C785.5,-180 752.5,-180 752.5,-180 746.5,-180 740.5,-174 740.5,-168 740.5,-168 740.5,-156 740.5,-156 740.5,-150 746.5,-144 752.5,-144 752.5,-144 785.5,-144 785.5,-144 791.5,-144 797.5,-150 797.5,-156 797.5,-156 797.5,-168 797.5,-168 797.5,-174 791.5,-180 785.5,-180"/>
<text text-anchor="middle" x="769" y="-159.5" font-family="sans" font-size="10.00" fill="#000000">stringtie</text>
</g>
<!-- 17&#45;&gt;1 -->
<g id="edge7" class="edge">
<title>17&#45;&gt;1</title>
<path fill="none" stroke="#c0c0c0" stroke-width="2" d="M797.5402,-149.2112C802.619,-147.2572 807.9127,-145.4214 813,-144 921.3598,-113.7233 1054.0887,-98.8531 1117.6269,-93.0456"/>
<polygon fill="#c0c0c0" stroke="#c0c0c0" stroke-width="2" points="1118.2911,-96.5004 1127.9413,-92.1275 1117.6703,-89.528 1118.2911,-96.5004"/>
</g>
<!-- 18 -->
<g id="node19" class="node">
<title>18</title>
<path fill="none" stroke="#d8a456" stroke-width="2" stroke-dasharray="5,2" d="M630,-252C630,-252 592,-252 592,-252 586,-252 580,-246 580,-240 580,-240 580,-228 580,-228 580,-222 586,-216 592,-216 592,-216 630,-216 630,-216 636,-216 642,-222 642,-228 642,-228 642,-240 642,-240 642,-246 636,-252 630,-252"/>
<text text-anchor="middle" x="611" y="-231.5" font-family="sans" font-size="10.00" fill="#000000">sort_sam</text>
</g>
<!-- 18&#45;&gt;17 -->
<g id="edge33" class="edge">
<title>18&#45;&gt;17</title>
<path fill="none" stroke="#c0c0c0" stroke-width="2" d="M642.2157,-219.7751C667.7179,-208.1539 703.8615,-191.6834 731.0367,-179.2997"/>
<polygon fill="#c0c0c0" stroke="#c0c0c0" stroke-width="2" points="732.5944,-182.4362 740.2428,-175.1046 729.6917,-176.0664 732.5944,-182.4362"/>
</g>
<!-- 19 -->
<g id="node20" class="node">
<title>19</title>
<path fill="none" stroke="#56d8c9" stroke-width="2" stroke-dasharray="5,2" d="M630,-329C630,-329 562,-329 562,-329 556,-329 550,-323 550,-317 550,-317 550,-300 550,-300 550,-294 556,-288 562,-288 562,-288 630,-288 630,-288 636,-288 642,-294 642,-300 642,-300 642,-317 642,-317 642,-323 636,-329 630,-329"/>
<text text-anchor="middle" x="596" y="-317" font-family="sans" font-size="10.00" fill="#000000">hisat2</text>
<text text-anchor="middle" x="596" y="-306" font-family="sans" font-size="10.00" fill="#000000">expansion: 3</text>
<text text-anchor="middle" x="596" y="-295" font-family="sans" font-size="10.00" fill="#000000">sample: Axenic</text>
</g>
<!-- 19&#45;&gt;18 -->
<g id="edge34" class="edge">
<title>19&#45;&gt;18</title>
<path fill="none" stroke="#c0c0c0" stroke-width="2" d="M600.1783,-287.7476C601.7807,-279.7892 603.6365,-270.5718 605.354,-262.0418"/>
<polygon fill="#c0c0c0" stroke="#c0c0c0" stroke-width="2" points="608.8112,-262.6028 607.354,-252.1087 601.9489,-261.2211 608.8112,-262.6028"/>
</g>
<!-- 20 -->
<g id="node21" class="node">
<title>20</title>
<path fill="none" stroke="#56a2d8" stroke-width="2" stroke-dasharray="5,2" d="M866.5,-180C866.5,-180 833.5,-180 833.5,-180 827.5,-180 821.5,-174 821.5,-168 821.5,-168 821.5,-156 821.5,-156 821.5,-150 827.5,-144 833.5,-144 833.5,-144 866.5,-144 866.5,-144 872.5,-144 878.5,-150 878.5,-156 878.5,-156 878.5,-168 878.5,-168 878.5,-174 872.5,-180 866.5,-180"/>
<text text-anchor="middle" x="850" y="-159.5" font-family="sans" font-size="10.00" fill="#000000">stringtie</text>
</g>
<!-- 20&#45;&gt;1 -->
<g id="edge8" class="edge">
<title>20&#45;&gt;1</title>
<path fill="none" stroke="#c0c0c0" stroke-width="2" d="M878.8241,-148.4398C882.8622,-146.8075 886.9993,-145.2715 891,-144 970.0425,-118.8786 1066.219,-102.6537 1117.8901,-95.0512"/>
<polygon fill="#c0c0c0" stroke="#c0c0c0" stroke-width="2" points="1118.519,-98.4968 1127.9156,-93.6026 1117.5179,-91.5687 1118.519,-98.4968"/>
</g>
<!-- 21 -->
<g id="node22" class="node">
<title>21</title>
<path fill="none" stroke="#d8a456" stroke-width="2" stroke-dasharray="5,2" d="M740,-252C740,-252 702,-252 702,-252 696,-252 690,-246 690,-240 690,-240 690,-228 690,-228 690,-222 696,-216 702,-216 702,-216 740,-216 740,-216 746,-216 752,-222 752,-228 752,-228 752,-240 752,-240 752,-246 746,-252 740,-252"/>
<text text-anchor="middle" x="721" y="-231.5" font-family="sans" font-size="10.00" fill="#000000">sort_sam</text>
</g>
<!-- 21&#45;&gt;20 -->
<g id="edge35" class="edge">
<title>21&#45;&gt;20</title>
<path fill="none" stroke="#c0c0c0" stroke-width="2" d="M752.2273,-216.5708C770.3801,-206.439 793.3748,-193.6047 812.503,-182.9285"/>
<polygon fill="#c0c0c0" stroke="#c0c0c0" stroke-width="2" points="814.2394,-185.9677 821.2656,-178.0378 810.8278,-179.8553 814.2394,-185.9677"/>
</g>
<!-- 22 -->
<g id="node23" class="node">
<title>22</title>
<path fill="none" stroke="#56d8c9" stroke-width="2" stroke-dasharray="5,2" d="M740,-329C740,-329 672,-329 672,-329 666,-329 660,-323 660,-317 660,-317 660,-300 660,-300 660,-294 666,-288 672,-288 672,-288 740,-288 740,-288 746,-288 752,-294 752,-300 752,-300 752,-317 752,-317 752,-323 746,-329 740,-329"/>
<text text-anchor="middle" x="706" y="-317" font-family="sans" font-size="10.00" fill="#000000">hisat2</text>
<text text-anchor="middle" x="706" y="-306" font-family="sans" font-size="10.00" fill="#000000">expansion: 1</text>
<text text-anchor="middle" x="706" y="-295" font-family="sans" font-size="10.00" fill="#000000">sample: Leaf49</text>
</g>
<!-- 22&#45;&gt;21 -->
<g id="edge36" class="edge">
<title>22&#45;&gt;21</title>
<path fill="none" stroke="#c0c0c0" stroke-width="2" d="M710.1783,-287.7476C711.7807,-279.7892 713.6365,-270.5718 715.354,-262.0418"/>
<polygon fill="#c0c0c0" stroke="#c0c0c0" stroke-width="2" points="718.8112,-262.6028 717.354,-252.1087 711.9489,-261.2211 718.8112,-262.6028"/>
</g>
<!-- 23 -->
<g id="node24" class="node">
<title>23</title>
<path fill="none" stroke="#56a2d8" stroke-width="2" stroke-dasharray="5,2" d="M944.5,-180C944.5,-180 911.5,-180 911.5,-180 905.5,-180 899.5,-174 899.5,-168 899.5,-168 899.5,-156 899.5,-156 899.5,-150 905.5,-144 911.5,-144 911.5,-144 944.5,-144 944.5,-144 950.5,-144 956.5,-150 956.5,-156 956.5,-156 956.5,-168 956.5,-168 956.5,-174 950.5,-180 944.5,-180"/>
<text text-anchor="middle" x="928" y="-159.5" font-family="sans" font-size="10.00" fill="#000000">stringtie</text>
</g>
<!-- 23&#45;&gt;1 -->
<g id="edge9" class="edge">
<title>23&#45;&gt;1</title>
<path fill="none" stroke="#c0c0c0" stroke-width="2" d="M956.7565,-148.1322C960.1771,-146.6604 963.6451,-145.2477 967,-144 1018.2044,-124.9567 1079.2962,-108.5226 1117.6275,-98.9388"/>
<polygon fill="#c0c0c0" stroke="#c0c0c0" stroke-width="2" points="1118.941,-102.2194 1127.8082,-96.4208 1117.2603,-95.4242 1118.941,-102.2194"/>
</g>
<!-- 24 -->
<g id="node25" class="node">
<title>24</title>
<path fill="none" stroke="#d8a456" stroke-width="2" stroke-dasharray="5,2" d="M850,-252C850,-252 812,-252 812,-252 806,-252 800,-246 800,-240 800,-240 800,-228 800,-228 800,-222 806,-216 812,-216 812,-216 850,-216 850,-216 856,-216 862,-222 862,-228 862,-228 862,-240 862,-240 862,-246 856,-252 850,-252"/>
<text text-anchor="middle" x="831" y="-231.5" font-family="sans" font-size="10.00" fill="#000000">sort_sam</text>
</g>
<!-- 24&#45;&gt;23 -->
<g id="edge37" class="edge">
<title>24&#45;&gt;23</title>
<path fill="none" stroke="#c0c0c0" stroke-width="2" d="M855.4772,-215.8314C867.5395,-206.8779 882.254,-195.9558 895.2686,-186.2955"/>
<polygon fill="#c0c0c0" stroke="#c0c0c0" stroke-width="2" points="897.587,-188.9335 903.5306,-180.1628 893.4148,-183.3127 897.587,-188.9335"/>
</g>
<!-- 25 -->
<g id="node26" class="node">
<title>25</title>
<path fill="none" stroke="#56d8c9" stroke-width="2" stroke-dasharray="5,2" d="M850,-329C850,-329 782,-329 782,-329 776,-329 770,-323 770,-317 770,-317 770,-300 770,-300 770,-294 776,-288 782,-288 782,-288 850,-288 850,-288 856,-288 862,-294 862,-300 862,-300 862,-317 862,-317 862,-323 856,-329 850,-329"/>
<text text-anchor="middle" x="816" y="-317" font-family="sans" font-size="10.00" fill="#000000">hisat2</text>
<text text-anchor="middle" x="816" y="-306" font-family="sans" font-size="10.00" fill="#000000">expansion: 2</text>
<text text-anchor="middle" x="816" y="-295" font-family="sans" font-size="10.00" fill="#000000">sample: Leaf49</text>
</g>
<!-- 25&#45;&gt;24 -->
<g id="edge38" class="edge">
<title>25&#45;&gt;24</title>
<path fill="none" stroke="#c0c0c0" stroke-width="2" d="M820.1783,-287.7476C821.7807,-279.7892 823.6365,-270.5718 825.354,-262.0418"/>
<polygon fill="#c0c0c0" stroke="#c0c0c0" stroke-width="2" points="828.8112,-262.6028 827.354,-252.1087 821.9489,-261.2211 828.8112,-262.6028"/>
</g>
<!-- 26 -->
<g id="node27" class="node">
<title>26</title>
<path fill="none" stroke="#56a2d8" stroke-width="2" stroke-dasharray="5,2" d="M1020.5,-180C1020.5,-180 987.5,-180 987.5,-180 981.5,-180 975.5,-174 975.5,-168 975.5,-168 975.5,-156 975.5,-156 975.5,-150 981.5,-144 987.5,-144 987.5,-144 1020.5,-144 1020.5,-144 1026.5,-144 1032.5,-150 1032.5,-156 1032.5,-156 1032.5,-168 1032.5,-168 1032.5,-174 1026.5,-180 1020.5,-180"/>
<text text-anchor="middle" x="1004" y="-159.5" font-family="sans" font-size="10.00" fill="#000000">stringtie</text>
</g>
<!-- 26&#45;&gt;1 -->
<g id="edge10" class="edge">
<title>26&#45;&gt;1</title>
<path fill="none" stroke="#c0c0c0" stroke-width="2" d="M1032.7574,-148.2879C1057.1445,-136.6596 1092.2586,-119.9164 1118.6013,-107.3557"/>
<polygon fill="#c0c0c0" stroke="#c0c0c0" stroke-width="2" points="1120.3535,-110.3978 1127.8735,-102.9345 1117.3407,-104.0793 1120.3535,-110.3978"/>
</g>
<!-- 27 -->
<g id="node28" class="node">
<title>27</title>
<path fill="none" stroke="#d8a456" stroke-width="2" stroke-dasharray="5,2" d="M961,-252C961,-252 923,-252 923,-252 917,-252 911,-246 911,-240 911,-240 911,-228 911,-228 911,-222 917,-216 923,-216 923,-216 961,-216 961,-216 967,-216 973,-222 973,-228 973,-228 973,-240 973,-240 973,-246 967,-252 961,-252"/>
<text text-anchor="middle" x="942" y="-231.5" font-family="sans" font-size="10.00" fill="#000000">sort_sam</text>
</g>
<!-- 27&#45;&gt;26 -->
<g id="edge39" class="edge">
<title>27&#45;&gt;26</title>
<path fill="none" stroke="#c0c0c0" stroke-width="2" d="M957.6452,-215.8314C964.8591,-207.454 973.557,-197.3531 981.4605,-188.1749"/>
<polygon fill="#c0c0c0" stroke="#c0c0c0" stroke-width="2" points="984.2711,-190.2748 988.1441,-180.4133 978.9667,-185.7071 984.2711,-190.2748"/>
</g>
<!-- 28 -->
<g id="node29" class="node">
<title>28</title>
<path fill="none" stroke="#56d8c9" stroke-width="2" stroke-dasharray="5,2" d="M960,-329C960,-329 892,-329 892,-329 886,-329 880,-323 880,-317 880,-317 880,-300 880,-300 880,-294 886,-288 892,-288 892,-288 960,-288 960,-288 966,-288 972,-294 972,-300 972,-300 972,-317 972,-317 972,-323 966,-329 960,-329"/>
<text text-anchor="middle" x="926" y="-317" font-family="sans" font-size="10.00" fill="#000000">hisat2</text>
<text text-anchor="middle" x="926" y="-306" font-family="sans" font-size="10.00" fill="#000000">expansion: 3</text>
<text text-anchor="middle" x="926" y="-295" font-family="sans" font-size="10.00" fill="#000000">sample: Leaf49</text>
</g>
<!-- 28&#45;&gt;27 -->
<g id="edge40" class="edge">
<title>28&#45;&gt;27</title>
<path fill="none" stroke="#c0c0c0" stroke-width="2" d="M930.4569,-287.7476C932.1661,-279.7892 934.1456,-270.5718 935.9776,-262.0418"/>
<polygon fill="#c0c0c0" stroke="#c0c0c0" stroke-width="2" points="939.433,-262.6207 938.1109,-252.1087 932.5891,-261.1508 939.433,-262.6207"/>
</g>
<!-- 29 -->
<g id="node30" class="node">
<title>29</title>
<path fill="none" stroke="#56a2d8" stroke-width="2" stroke-dasharray="5,2" d="M1096.5,-180C1096.5,-180 1063.5,-180 1063.5,-180 1057.5,-180 1051.5,-174 1051.5,-168 1051.5,-168 1051.5,-156 1051.5,-156 1051.5,-150 1057.5,-144 1063.5,-144 1063.5,-144 1096.5,-144 1096.5,-144 1102.5,-144 1108.5,-150 1108.5,-156 1108.5,-156 1108.5,-168 1108.5,-168 1108.5,-174 1102.5,-180 1096.5,-180"/>
<text text-anchor="middle" x="1080" y="-159.5" font-family="sans" font-size="10.00" fill="#000000">stringtie</text>
</g>
<!-- 29&#45;&gt;1 -->
<g id="edge11" class="edge">
<title>29&#45;&gt;1</title>
<path fill="none" stroke="#c0c0c0" stroke-width="2" d="M1098.9257,-143.8314C1107.9857,-135.1337 1118.9809,-124.5783 1128.8265,-115.1265"/>
<polygon fill="#c0c0c0" stroke="#c0c0c0" stroke-width="2" points="1131.2904,-117.613 1136.0804,-108.1628 1126.4426,-112.5633 1131.2904,-117.613"/>
</g>
<!-- 30 -->
<g id="node31" class="node">
<title>30</title>
<path fill="none" stroke="#d8a456" stroke-width="2" stroke-dasharray="5,2" d="M1076,-252C1076,-252 1038,-252 1038,-252 1032,-252 1026,-246 1026,-240 1026,-240 1026,-228 1026,-228 1026,-222 1032,-216 1038,-216 1038,-216 1076,-216 1076,-216 1082,-216 1088,-222 1088,-228 1088,-228 1088,-240 1088,-240 1088,-246 1082,-252 1076,-252"/>
<text text-anchor="middle" x="1057" y="-231.5" font-family="sans" font-size="10.00" fill="#000000">sort_sam</text>
</g>
<!-- 30&#45;&gt;29 -->
<g id="edge41" class="edge">
<title>30&#45;&gt;29</title>
<path fill="none" stroke="#c0c0c0" stroke-width="2" d="M1062.8039,-215.8314C1065.2908,-208.0463 1068.2531,-198.7729 1071.0125,-190.1347"/>
<polygon fill="#c0c0c0" stroke="#c0c0c0" stroke-width="2" points="1074.409,-191.0041 1074.118,-180.4133 1067.7409,-188.874 1074.409,-191.0041"/>
</g>
<!-- 31 -->
<g id="node32" class="node">
<title>31</title>
<path fill="none" stroke="#56d8c9" stroke-width="2" stroke-dasharray="5,2" d="M1076,-329C1076,-329 1002,-329 1002,-329 996,-329 990,-323 990,-317 990,-317 990,-300 990,-300 990,-294 996,-288 1002,-288 1002,-288 1076,-288 1076,-288 1082,-288 1088,-294 1088,-300 1088,-300 1088,-317 1088,-317 1088,-323 1082,-329 1076,-329"/>
<text text-anchor="middle" x="1039" y="-317" font-family="sans" font-size="10.00" fill="#000000">hisat2</text>
<text text-anchor="middle" x="1039" y="-306" font-family="sans" font-size="10.00" fill="#000000">expansion: 1</text>
<text text-anchor="middle" x="1039" y="-295" font-family="sans" font-size="10.00" fill="#000000">sample: Leaf137</text>
</g>
<!-- 31&#45;&gt;30 -->
<g id="edge42" class="edge">
<title>31&#45;&gt;30</title>
<path fill="none" stroke="#c0c0c0" stroke-width="2" d="M1044.014,-287.7476C1045.9368,-279.7892 1048.1639,-270.5718 1050.2248,-262.0418"/>
<polygon fill="#c0c0c0" stroke="#c0c0c0" stroke-width="2" points="1053.6783,-262.651 1052.6248,-252.1087 1046.874,-261.007 1053.6783,-262.651"/>
</g>
<!-- 32 -->
<g id="node33" class="node">
<title>32</title>
<path fill="none" stroke="#56a2d8" stroke-width="2" stroke-dasharray="5,2" d="M1171.5,-180C1171.5,-180 1138.5,-180 1138.5,-180 1132.5,-180 1126.5,-174 1126.5,-168 1126.5,-168 1126.5,-156 1126.5,-156 1126.5,-150 1132.5,-144 1138.5,-144 1138.5,-144 1171.5,-144 1171.5,-144 1177.5,-144 1183.5,-150 1183.5,-156 1183.5,-156 1183.5,-168 1183.5,-168 1183.5,-174 1177.5,-180 1171.5,-180"/>
<text text-anchor="middle" x="1155" y="-159.5" font-family="sans" font-size="10.00" fill="#000000">stringtie</text>
</g>
<!-- 32&#45;&gt;1 -->
<g id="edge12" class="edge">
<title>32&#45;&gt;1</title>
<path fill="none" stroke="#c0c0c0" stroke-width="2" d="M1155,-143.8314C1155,-136.131 1155,-126.9743 1155,-118.4166"/>
<polygon fill="#c0c0c0" stroke="#c0c0c0" stroke-width="2" points="1158.5001,-118.4132 1155,-108.4133 1151.5001,-118.4133 1158.5001,-118.4132"/>
</g>
<!-- 33 -->
<g id="node34" class="node">
<title>33</title>
<path fill="none" stroke="#d8a456" stroke-width="2" stroke-dasharray="5,2" d="M1174,-252C1174,-252 1136,-252 1136,-252 1130,-252 1124,-246 1124,-240 1124,-240 1124,-228 1124,-228 1124,-222 1130,-216 1136,-216 1136,-216 1174,-216 1174,-216 1180,-216 1186,-222 1186,-228 1186,-228 1186,-240 1186,-240 1186,-246 1180,-252 1174,-252"/>
<text text-anchor="middle" x="1155" y="-231.5" font-family="sans" font-size="10.00" fill="#000000">sort_sam</text>
</g>
<!-- 33&#45;&gt;32 -->
<g id="edge43" class="edge">
<title>33&#45;&gt;32</title>
<path fill="none" stroke="#c0c0c0" stroke-width="2" d="M1155,-215.8314C1155,-208.131 1155,-198.9743 1155,-190.4166"/>
<polygon fill="#c0c0c0" stroke="#c0c0c0" stroke-width="2" points="1158.5001,-190.4132 1155,-180.4133 1151.5001,-190.4133 1158.5001,-190.4132"/>
</g>
<!-- 34 -->
<g id="node35" class="node">
<title>34</title>
<path fill="none" stroke="#56d8c9" stroke-width="2" stroke-dasharray="5,2" d="M1192,-329C1192,-329 1118,-329 1118,-329 1112,-329 1106,-323 1106,-317 1106,-317 1106,-300 1106,-300 1106,-294 1112,-288 1118,-288 1118,-288 1192,-288 1192,-288 1198,-288 1204,-294 1204,-300 1204,-300 1204,-317 1204,-317 1204,-323 1198,-329 1192,-329"/>
<text text-anchor="middle" x="1155" y="-317" font-family="sans" font-size="10.00" fill="#000000">hisat2</text>
<text text-anchor="middle" x="1155" y="-306" font-family="sans" font-size="10.00" fill="#000000">expansion: 2</text>
<text text-anchor="middle" x="1155" y="-295" font-family="sans" font-size="10.00" fill="#000000">sample: Leaf137</text>
</g>
<!-- 34&#45;&gt;33 -->
<g id="edge44" class="edge">
<title>34&#45;&gt;33</title>
<path fill="none" stroke="#c0c0c0" stroke-width="2" d="M1155,-287.7476C1155,-279.8767 1155,-270.7743 1155,-262.3232"/>
<polygon fill="#c0c0c0" stroke="#c0c0c0" stroke-width="2" points="1158.5001,-262.1086 1155,-252.1087 1151.5001,-262.1087 1158.5001,-262.1086"/>
</g>
<!-- 35 -->
<g id="node36" class="node">
<title>35</title>
<path fill="none" stroke="#56a2d8" stroke-width="2" stroke-dasharray="5,2" d="M1248.5,-180C1248.5,-180 1215.5,-180 1215.5,-180 1209.5,-180 1203.5,-174 1203.5,-168 1203.5,-168 1203.5,-156 1203.5,-156 1203.5,-150 1209.5,-144 1215.5,-144 1215.5,-144 1248.5,-144 1248.5,-144 1254.5,-144 1260.5,-150 1260.5,-156 1260.5,-156 1260.5,-168 1260.5,-168 1260.5,-174 1254.5,-180 1248.5,-180"/>
<text text-anchor="middle" x="1232" y="-159.5" font-family="sans" font-size="10.00" fill="#000000">stringtie</text>
</g>
<!-- 35&#45;&gt;1 -->
<g id="edge13" class="edge">
<title>35&#45;&gt;1</title>
<path fill="none" stroke="#c0c0c0" stroke-width="2" d="M1212.5696,-143.8314C1203.268,-135.1337 1191.9796,-124.5783 1181.8714,-115.1265"/>
<polygon fill="#c0c0c0" stroke="#c0c0c0" stroke-width="2" points="1184.1189,-112.4363 1174.4241,-108.1628 1179.3379,-117.5493 1184.1189,-112.4363"/>
</g>
<!-- 36 -->
<g id="node37" class="node">
<title>36</title>
<path fill="none" stroke="#d8a456" stroke-width="2" stroke-dasharray="5,2" d="M1254,-252C1254,-252 1216,-252 1216,-252 1210,-252 1204,-246 1204,-240 1204,-240 1204,-228 1204,-228 1204,-222 1210,-216 1216,-216 1216,-216 1254,-216 1254,-216 1260,-216 1266,-222 1266,-228 1266,-228 1266,-240 1266,-240 1266,-246 1260,-252 1254,-252"/>
<text text-anchor="middle" x="1235" y="-231.5" font-family="sans" font-size="10.00" fill="#000000">sort_sam</text>
</g>
<!-- 36&#45;&gt;35 -->
<g id="edge45" class="edge">
<title>36&#45;&gt;35</title>
<path fill="none" stroke="#c0c0c0" stroke-width="2" d="M1234.243,-215.8314C1233.9221,-208.131 1233.5406,-198.9743 1233.184,-190.4166"/>
<polygon fill="#c0c0c0" stroke="#c0c0c0" stroke-width="2" points="1236.6806,-190.2589 1232.7672,-180.4133 1229.6867,-190.5503 1236.6806,-190.2589"/>
</g>
<!-- 37 -->
<g id="node38" class="node">
<title>37</title>
<path fill="none" stroke="#56d8c9" stroke-width="2" stroke-dasharray="5,2" d="M1308,-329C1308,-329 1234,-329 1234,-329 1228,-329 1222,-323 1222,-317 1222,-317 1222,-300 1222,-300 1222,-294 1228,-288 1234,-288 1234,-288 1308,-288 1308,-288 1314,-288 1320,-294 1320,-300 1320,-300 1320,-317 1320,-317 1320,-323 1314,-329 1308,-329"/>
<text text-anchor="middle" x="1271" y="-317" font-family="sans" font-size="10.00" fill="#000000">hisat2</text>
<text text-anchor="middle" x="1271" y="-306" font-family="sans" font-size="10.00" fill="#000000">expansion: 3</text>
<text text-anchor="middle" x="1271" y="-295" font-family="sans" font-size="10.00" fill="#000000">sample: Leaf137</text>
</g>
<!-- 37&#45;&gt;36 -->
<g id="edge46" class="edge">
<title>37&#45;&gt;36</title>
<path fill="none" stroke="#c0c0c0" stroke-width="2" d="M1260.972,-287.7476C1256.9996,-279.5269 1252.378,-269.9627 1248.1438,-261.2004"/>
<polygon fill="#c0c0c0" stroke="#c0c0c0" stroke-width="2" points="1251.2528,-259.5897 1243.7505,-252.1087 1244.9501,-262.6354 1251.2528,-259.5897"/>
</g>
<!-- 38 -->
<g id="node39" class="node">
<title>38</title>
<path fill="none" stroke="#56a2d8" stroke-width="2" stroke-dasharray="5,2" d="M1327.5,-180C1327.5,-180 1294.5,-180 1294.5,-180 1288.5,-180 1282.5,-174 1282.5,-168 1282.5,-168 1282.5,-156 1282.5,-156 1282.5,-150 1288.5,-144 1294.5,-144 1294.5,-144 1327.5,-144 1327.5,-144 1333.5,-144 1339.5,-150 1339.5,-156 1339.5,-156 1339.5,-168 1339.5,-168 1339.5,-174 1333.5,-180 1327.5,-180"/>
<text text-anchor="middle" x="1311" y="-159.5" font-family="sans" font-size="10.00" fill="#000000">stringtie</text>
</g>
<!-- 38&#45;&gt;1 -->
<g id="edge14" class="edge">
<title>38&#45;&gt;1</title>
<path fill="none" stroke="#c0c0c0" stroke-width="2" d="M1282.3872,-148.7941C1256.815,-136.9916 1219.2117,-119.6362 1191.4852,-106.8393"/>
<polygon fill="#c0c0c0" stroke="#c0c0c0" stroke-width="2" points="1192.6721,-103.5324 1182.1258,-102.5196 1189.7387,-109.8881 1192.6721,-103.5324"/>
</g>
<!-- 39 -->
<g id="node40" class="node">
<title>39</title>
<path fill="none" stroke="#d8a456" stroke-width="2" stroke-dasharray="5,2" d="M1335,-252C1335,-252 1297,-252 1297,-252 1291,-252 1285,-246 1285,-240 1285,-240 1285,-228 1285,-228 1285,-222 1291,-216 1297,-216 1297,-216 1335,-216 1335,-216 1341,-216 1347,-222 1347,-228 1347,-228 1347,-240 1347,-240 1347,-246 1341,-252 1335,-252"/>
<text text-anchor="middle" x="1316" y="-231.5" font-family="sans" font-size="10.00" fill="#000000">sort_sam</text>
</g>
<!-- 39&#45;&gt;38 -->
<g id="edge47" class="edge">
<title>39&#45;&gt;38</title>
<path fill="none" stroke="#c0c0c0" stroke-width="2" d="M1314.7383,-215.8314C1314.2035,-208.131 1313.5677,-198.9743 1312.9734,-190.4166"/>
<polygon fill="#c0c0c0" stroke="#c0c0c0" stroke-width="2" points="1316.4632,-190.1467 1312.2787,-180.4133 1309.48,-190.6317 1316.4632,-190.1467"/>
</g>
<!-- 40 -->
<g id="node41" class="node">
<title>40</title>
<path fill="none" stroke="#56d8c9" stroke-width="2" stroke-dasharray="5,2" d="M1424,-329C1424,-329 1350,-329 1350,-329 1344,-329 1338,-323 1338,-317 1338,-317 1338,-300 1338,-300 1338,-294 1344,-288 1350,-288 1350,-288 1424,-288 1424,-288 1430,-288 1436,-294 1436,-300 1436,-300 1436,-317 1436,-317 1436,-323 1430,-329 1424,-329"/>
<text text-anchor="middle" x="1387" y="-317" font-family="sans" font-size="10.00" fill="#000000">hisat2</text>
<text text-anchor="middle" x="1387" y="-306" font-family="sans" font-size="10.00" fill="#000000">expansion: 1</text>
<text text-anchor="middle" x="1387" y="-295" font-family="sans" font-size="10.00" fill="#000000">sample: Leaf405</text>
</g>
<!-- 40&#45;&gt;39 -->
<g id="edge48" class="edge">
<title>40&#45;&gt;39</title>
<path fill="none" stroke="#c0c0c0" stroke-width="2" d="M1367.2225,-287.7476C1358.8879,-279.0021 1349.1044,-268.7363 1340.3334,-259.5329"/>
<polygon fill="#c0c0c0" stroke="#c0c0c0" stroke-width="2" points="1342.6906,-256.9331 1333.2579,-252.1087 1337.6232,-261.7624 1342.6906,-256.9331"/>
</g>
<!-- 41 -->
<g id="node42" class="node">
<title>41</title>
<path fill="none" stroke="#56a2d8" stroke-width="2" stroke-dasharray="5,2" d="M1407.5,-180C1407.5,-180 1374.5,-180 1374.5,-180 1368.5,-180 1362.5,-174 1362.5,-168 1362.5,-168 1362.5,-156 1362.5,-156 1362.5,-150 1368.5,-144 1374.5,-144 1374.5,-144 1407.5,-144 1407.5,-144 1413.5,-144 1419.5,-150 1419.5,-156 1419.5,-156 1419.5,-168 1419.5,-168 1419.5,-174 1413.5,-180 1407.5,-180"/>
<text text-anchor="middle" x="1391" y="-159.5" font-family="sans" font-size="10.00" fill="#000000">stringtie</text>
</g>
<!-- 41&#45;&gt;1 -->
<g id="edge15" class="edge">
<title>41&#45;&gt;1</title>
<path fill="none" stroke="#c0c0c0" stroke-width="2" d="M1362.2804,-149.0928C1357.8702,-147.2854 1353.3406,-145.5266 1349,-144 1295.2614,-125.1003 1231.3388,-108.3833 1191.9662,-98.727"/>
<polygon fill="#c0c0c0" stroke="#c0c0c0" stroke-width="2" points="1192.5676,-95.2714 1182.0239,-96.3109 1190.9146,-102.0734 1192.5676,-95.2714"/>
</g>
<!-- 42 -->
<g id="node43" class="node">
<title>42</title>
<path fill="none" stroke="#d8a456" stroke-width="2" stroke-dasharray="5,2" d="M1416,-252C1416,-252 1378,-252 1378,-252 1372,-252 1366,-246 1366,-240 1366,-240 1366,-228 1366,-228 1366,-222 1372,-216 1378,-216 1378,-216 1416,-216 1416,-216 1422,-216 1428,-222 1428,-228 1428,-228 1428,-240 1428,-240 1428,-246 1422,-252 1416,-252"/>
<text text-anchor="middle" x="1397" y="-231.5" font-family="sans" font-size="10.00" fill="#000000">sort_sam</text>
</g>
<!-- 42&#45;&gt;41 -->
<g id="edge49" class="edge">
<title>42&#45;&gt;41</title>
<path fill="none" stroke="#c0c0c0" stroke-width="2" d="M1395.4859,-215.8314C1394.8442,-208.131 1394.0812,-198.9743 1393.3681,-190.4166"/>
<polygon fill="#c0c0c0" stroke="#c0c0c0" stroke-width="2" points="1396.8529,-190.088 1392.5344,-180.4133 1389.8771,-190.6694 1396.8529,-190.088"/>
</g>
<!-- 43 -->
<g id="node44" class="node">
<title>43</title>
<path fill="none" stroke="#56d8c9" stroke-width="2" stroke-dasharray="5,2" d="M1540,-329C1540,-329 1466,-329 1466,-329 1460,-329 1454,-323 1454,-317 1454,-317 1454,-300 1454,-300 1454,-294 1460,-288 1466,-288 1466,-288 1540,-288 1540,-288 1546,-288 1552,-294 1552,-300 1552,-300 1552,-317 1552,-317 1552,-323 1546,-329 1540,-329"/>
<text text-anchor="middle" x="1503" y="-317" font-family="sans" font-size="10.00" fill="#000000">hisat2</text>
<text text-anchor="middle" x="1503" y="-306" font-family="sans" font-size="10.00" fill="#000000">expansion: 2</text>
<text text-anchor="middle" x="1503" y="-295" font-family="sans" font-size="10.00" fill="#000000">sample: Leaf405</text>
</g>
<!-- 43&#45;&gt;42 -->
<g id="edge50" class="edge">
<title>43&#45;&gt;42</title>
<path fill="none" stroke="#c0c0c0" stroke-width="2" d="M1473.7544,-287.9453C1460.5601,-278.6719 1444.8892,-267.658 1431.1581,-258.0074"/>
<polygon fill="#c0c0c0" stroke="#c0c0c0" stroke-width="2" points="1433.0927,-255.0891 1422.8987,-252.2024 1429.0676,-260.8161 1433.0927,-255.0891"/>
</g>
<!-- 44 -->
<g id="node45" class="node">
<title>44</title>
<path fill="none" stroke="#56a2d8" stroke-width="2" stroke-dasharray="5,2" d="M1489.5,-180C1489.5,-180 1456.5,-180 1456.5,-180 1450.5,-180 1444.5,-174 1444.5,-168 1444.5,-168 1444.5,-156 1444.5,-156 1444.5,-150 1450.5,-144 1456.5,-144 1456.5,-144 1489.5,-144 1489.5,-144 1495.5,-144 1501.5,-150 1501.5,-156 1501.5,-156 1501.5,-168 1501.5,-168 1501.5,-174 1495.5,-180 1489.5,-180"/>
<text text-anchor="middle" x="1473" y="-159.5" font-family="sans" font-size="10.00" fill="#000000">stringtie</text>
</g>
<!-- 44&#45;&gt;1 -->
<g id="edge16" class="edge">
<title>44&#45;&gt;1</title>
<path fill="none" stroke="#c0c0c0" stroke-width="2" d="M1444.4127,-149.3738C1439.3391,-147.4017 1434.0594,-145.5178 1429,-144 1346.0615,-119.1188 1245.491,-102.6722 1192.2551,-95.0011"/>
<polygon fill="#c0c0c0" stroke="#c0c0c0" stroke-width="2" points="1192.6506,-91.5222 1182.2583,-93.584 1191.668,-98.453 1192.6506,-91.5222"/>
</g>
<!-- 45 -->
<g id="node46" class="node">
<title>45</title>
<path fill="none" stroke="#d8a456" stroke-width="2" stroke-dasharray="5,2" d="M1499,-252C1499,-252 1461,-252 1461,-252 1455,-252 1449,-246 1449,-240 1449,-240 1449,-228 1449,-228 1449,-222 1455,-216 1461,-216 1461,-216 1499,-216 1499,-216 1505,-216 1511,-222 1511,-228 1511,-228 1511,-240 1511,-240 1511,-246 1505,-252 1499,-252"/>
<text text-anchor="middle" x="1480" y="-231.5" font-family="sans" font-size="10.00" fill="#000000">sort_sam</text>
</g>
<!-- 45&#45;&gt;44 -->
<g id="edge51" class="edge">
<title>45&#45;&gt;44</title>
<path fill="none" stroke="#c0c0c0" stroke-width="2" d="M1478.2336,-215.8314C1477.485,-208.131 1476.5947,-198.9743 1475.7627,-190.4166"/>
<polygon fill="#c0c0c0" stroke="#c0c0c0" stroke-width="2" points="1479.2415,-190.0276 1474.7902,-180.4133 1472.2744,-190.7051 1479.2415,-190.0276"/>
</g>
<!-- 46 -->
<g id="node47" class="node">
<title>46</title>
<path fill="none" stroke="#56d8c9" stroke-width="2" stroke-dasharray="5,2" d="M1656,-329C1656,-329 1582,-329 1582,-329 1576,-329 1570,-323 1570,-317 1570,-317 1570,-300 1570,-300 1570,-294 1576,-288 1582,-288 1582,-288 1656,-288 1656,-288 1662,-288 1668,-294 1668,-300 1668,-300 1668,-317 1668,-317 1668,-323 1662,-329 1656,-329"/>
<text text-anchor="middle" x="1619" y="-317" font-family="sans" font-size="10.00" fill="#000000">hisat2</text>
<text text-anchor="middle" x="1619" y="-306" font-family="sans" font-size="10.00" fill="#000000">expansion: 3</text>
<text text-anchor="middle" x="1619" y="-295" font-family="sans" font-size="10.00" fill="#000000">sample: Leaf405</text>
</g>
<!-- 46&#45;&gt;45 -->
<g id="edge52" class="edge">
<title>46&#45;&gt;45</title>
<path fill="none" stroke="#c0c0c0" stroke-width="2" d="M1580.6497,-287.9453C1561.8661,-277.8779 1539.2549,-265.7589 1520.2262,-255.5601"/>
<polygon fill="#c0c0c0" stroke="#c0c0c0" stroke-width="2" points="1521.6724,-252.3642 1511.2051,-250.7251 1518.3656,-258.5339 1521.6724,-252.3642"/>
</g>
<!-- 47 -->
<g id="node48" class="node">
<title>47</title>
<path fill="none" stroke="#56a2d8" stroke-width="2" stroke-dasharray="5,2" d="M1573.5,-180C1573.5,-180 1540.5,-180 1540.5,-180 1534.5,-180 1528.5,-174 1528.5,-168 1528.5,-168 1528.5,-156 1528.5,-156 1528.5,-150 1534.5,-144 1540.5,-144 1540.5,-144 1573.5,-144 1573.5,-144 1579.5,-144 1585.5,-150 1585.5,-156 1585.5,-156 1585.5,-168 1585.5,-168 1585.5,-174 1579.5,-180 1573.5,-180"/>
<text text-anchor="middle" x="1557" y="-159.5" font-family="sans" font-size="10.00" fill="#000000">stringtie</text>
</g>
<!-- 47&#45;&gt;1 -->
<g id="edge17" class="edge">
<title>47&#45;&gt;1</title>
<path fill="none" stroke="#c0c0c0" stroke-width="2" d="M1528.1261,-149.577C1522.5189,-147.4865 1516.6329,-145.5091 1511,-144 1397.1744,-113.505 1257.9522,-98.6405 1192.4528,-92.9223"/>
<polygon fill="#c0c0c0" stroke="#c0c0c0" stroke-width="2" points="1192.477,-89.4118 1182.2162,-92.0512 1191.8834,-96.3866 1192.477,-89.4118"/>
</g>
<!-- 48 -->
<g id="node49" class="node">
<title>48</title>
<path fill="none" stroke="#d8a456" stroke-width="2" stroke-dasharray="5,2" d="M1585,-252C1585,-252 1547,-252 1547,-252 1541,-252 1535,-246 1535,-240 1535,-240 1535,-228 1535,-228 1535,-222 1541,-216 1547,-216 1547,-216 1585,-216 1585,-216 1591,-216 1597,-222 1597,-228 1597,-228 1597,-240 1597,-240 1597,-246 1591,-252 1585,-252"/>
<text text-anchor="middle" x="1566" y="-231.5" font-family="sans" font-size="10.00" fill="#000000">sort_sam</text>
</g>
<!-- 48&#45;&gt;47 -->
<g id="edge53" class="edge">
<title>48&#45;&gt;47</title>
<path fill="none" stroke="#c0c0c0" stroke-width="2" d="M1563.7289,-215.8314C1562.7664,-208.131 1561.6218,-198.9743 1560.5521,-190.4166"/>
<polygon fill="#c0c0c0" stroke="#c0c0c0" stroke-width="2" points="1564.0151,-189.9019 1559.3017,-180.4133 1557.0691,-190.7702 1564.0151,-189.9019"/>
</g>
<!-- 49 -->
<g id="node50" class="node">
<title>49</title>
<path fill="none" stroke="#56d8c9" stroke-width="2" stroke-dasharray="5,2" d="M1772,-329C1772,-329 1698,-329 1698,-329 1692,-329 1686,-323 1686,-317 1686,-317 1686,-300 1686,-300 1686,-294 1692,-288 1698,-288 1698,-288 1772,-288 1772,-288 1778,-288 1784,-294 1784,-300 1784,-300 1784,-317 1784,-317 1784,-323 1778,-329 1772,-329"/>
<text text-anchor="middle" x="1735" y="-317" font-family="sans" font-size="10.00" fill="#000000">hisat2</text>
<text text-anchor="middle" x="1735" y="-306" font-family="sans" font-size="10.00" fill="#000000">expansion: 1</text>
<text text-anchor="middle" x="1735" y="-295" font-family="sans" font-size="10.00" fill="#000000">sample: Leaf177</text>
</g>
<!-- 49&#45;&gt;48 -->
<g id="edge54" class="edge">
<title>49&#45;&gt;48</title>
<path fill="none" stroke="#c0c0c0" stroke-width="2" d="M1688.3726,-287.9453C1662.6696,-276.6147 1631.072,-262.6856 1606.4233,-251.8198"/>
<polygon fill="#c0c0c0" stroke="#c0c0c0" stroke-width="2" points="1607.5671,-248.499 1597.0049,-247.6678 1604.7434,-254.9043 1607.5671,-248.499"/>
</g>
<!-- 50 -->
<g id="node51" class="node">
<title>50</title>
<path fill="none" stroke="#56a2d8" stroke-width="2" stroke-dasharray="5,2" d="M1660.5,-180C1660.5,-180 1627.5,-180 1627.5,-180 1621.5,-180 1615.5,-174 1615.5,-168 1615.5,-168 1615.5,-156 1615.5,-156 1615.5,-150 1621.5,-144 1627.5,-144 1627.5,-144 1660.5,-144 1660.5,-144 1666.5,-144 1672.5,-150 1672.5,-156 1672.5,-156 1672.5,-168 1672.5,-168 1672.5,-174 1666.5,-180 1660.5,-180"/>
<text text-anchor="middle" x="1644" y="-159.5" font-family="sans" font-size="10.00" fill="#000000">stringtie</text>
</g>
<!-- 50&#45;&gt;1 -->
<g id="edge18" class="edge">
<title>50&#45;&gt;1</title>
<path fill="none" stroke="#c0c0c0" stroke-width="2" d="M1615.3214,-150.2166C1608.7335,-147.8613 1601.695,-145.6177 1595,-144 1448.5303,-108.6093 1268.733,-95.7665 1192.2614,-91.6831"/>
<polygon fill="#c0c0c0" stroke="#c0c0c0" stroke-width="2" points="1192.3377,-88.1825 1182.1709,-91.1636 1191.9777,-95.1732 1192.3377,-88.1825"/>
</g>
<!-- 51 -->
<g id="node52" class="node">
<title>51</title>
<path fill="none" stroke="#d8a456" stroke-width="2" stroke-dasharray="5,2" d="M1676,-252C1676,-252 1638,-252 1638,-252 1632,-252 1626,-246 1626,-240 1626,-240 1626,-228 1626,-228 1626,-222 1632,-216 1638,-216 1638,-216 1676,-216 1676,-216 1682,-216 1688,-222 1688,-228 1688,-228 1688,-240 1688,-240 1688,-246 1682,-252 1676,-252"/>
<text text-anchor="middle" x="1657" y="-231.5" font-family="sans" font-size="10.00" fill="#000000">sort_sam</text>
</g>
<!-- 51&#45;&gt;50 -->
<g id="edge55" class="edge">
<title>51&#45;&gt;50</title>
<path fill="none" stroke="#c0c0c0" stroke-width="2" d="M1653.7196,-215.8314C1652.3292,-208.131 1650.6759,-198.9743 1649.1308,-190.4166"/>
<polygon fill="#c0c0c0" stroke="#c0c0c0" stroke-width="2" points="1652.5458,-189.6322 1647.3246,-180.4133 1645.6572,-190.8761 1652.5458,-189.6322"/>
</g>
<!-- 52 -->
<g id="node53" class="node">
<title>52</title>
<path fill="none" stroke="#56d8c9" stroke-width="2" stroke-dasharray="5,2" d="M1888,-329C1888,-329 1814,-329 1814,-329 1808,-329 1802,-323 1802,-317 1802,-317 1802,-300 1802,-300 1802,-294 1808,-288 1814,-288 1814,-288 1888,-288 1888,-288 1894,-288 1900,-294 1900,-300 1900,-300 1900,-317 1900,-317 1900,-323 1894,-329 1888,-329"/>
<text text-anchor="middle" x="1851" y="-317" font-family="sans" font-size="10.00" fill="#000000">hisat2</text>
<text text-anchor="middle" x="1851" y="-306" font-family="sans" font-size="10.00" fill="#000000">expansion: 2</text>
<text text-anchor="middle" x="1851" y="-295" font-family="sans" font-size="10.00" fill="#000000">sample: Leaf177</text>
</g>
<!-- 52&#45;&gt;51 -->
<g id="edge56" class="edge">
<title>52&#45;&gt;51</title>
<path fill="none" stroke="#c0c0c0" stroke-width="2" d="M1801.7948,-289.6042C1769.5838,-277.2345 1727.9984,-261.2649 1697.6635,-249.6156"/>
<polygon fill="#c0c0c0" stroke="#c0c0c0" stroke-width="2" points="1698.826,-246.3129 1688.2359,-245.9952 1696.3165,-252.8476 1698.826,-246.3129"/>
</g>
<!-- 53 -->
<g id="node54" class="node">
<title>53</title>
<path fill="none" stroke="#56a2d8" stroke-width="2" stroke-dasharray="5,2" d="M1755.5,-180C1755.5,-180 1722.5,-180 1722.5,-180 1716.5,-180 1710.5,-174 1710.5,-168 1710.5,-168 1710.5,-156 1710.5,-156 1710.5,-150 1716.5,-144 1722.5,-144 1722.5,-144 1755.5,-144 1755.5,-144 1761.5,-144 1767.5,-150 1767.5,-156 1767.5,-156 1767.5,-168 1767.5,-168 1767.5,-174 1761.5,-180 1755.5,-180"/>
<text text-anchor="middle" x="1739" y="-159.5" font-family="sans" font-size="10.00" fill="#000000">stringtie</text>
</g>
<!-- 53&#45;&gt;1 -->
<g id="edge19" class="edge">
<title>53&#45;&gt;1</title>
<path fill="none" stroke="#c0c0c0" stroke-width="2" d="M1710.3045,-151.6845C1701.3404,-148.8028 1691.3494,-145.9341 1682,-144 1500.8685,-106.5289 1279.0868,-94.6054 1192.3105,-91.215"/>
<polygon fill="#c0c0c0" stroke="#c0c0c0" stroke-width="2" points="1192.2941,-87.712 1182.1697,-90.8341 1192.0313,-94.7071 1192.2941,-87.712"/>
</g>
<!-- 54 -->
<g id="node55" class="node">
<title>54</title>
<path fill="none" stroke="#d8a456" stroke-width="2" stroke-dasharray="5,2" d="M1778,-252C1778,-252 1740,-252 1740,-252 1734,-252 1728,-246 1728,-240 1728,-240 1728,-228 1728,-228 1728,-222 1734,-216 1740,-216 1740,-216 1778,-216 1778,-216 1784,-216 1790,-222 1790,-228 1790,-228 1790,-240 1790,-240 1790,-246 1784,-252 1778,-252"/>
<text text-anchor="middle" x="1759" y="-231.5" font-family="sans" font-size="10.00" fill="#000000">sort_sam</text>
</g>
<!-- 54&#45;&gt;53 -->
<g id="edge57" class="edge">
<title>54&#45;&gt;53</title>
<path fill="none" stroke="#c0c0c0" stroke-width="2" d="M1753.9532,-215.8314C1751.7906,-208.0463 1749.2147,-198.7729 1746.8152,-190.1347"/>
<polygon fill="#c0c0c0" stroke="#c0c0c0" stroke-width="2" points="1750.1636,-189.1117 1744.1148,-180.4133 1743.419,-190.9852 1750.1636,-189.1117"/>
</g>
<!-- 55 -->
<g id="node56" class="node">
<title>55</title>
<path fill="none" stroke="#56d8c9" stroke-width="2" stroke-dasharray="5,2" d="M2004,-329C2004,-329 1930,-329 1930,-329 1924,-329 1918,-323 1918,-317 1918,-317 1918,-300 1918,-300 1918,-294 1924,-288 1930,-288 1930,-288 2004,-288 2004,-288 2010,-288 2016,-294 2016,-300 2016,-300 2016,-317 2016,-317 2016,-323 2010,-329 2004,-329"/>
<text text-anchor="middle" x="1967" y="-317" font-family="sans" font-size="10.00" fill="#000000">hisat2</text>
<text text-anchor="middle" x="1967" y="-306" font-family="sans" font-size="10.00" fill="#000000">expansion: 3</text>
<text text-anchor="middle" x="1967" y="-295" font-family="sans" font-size="10.00" fill="#000000">sample: Leaf177</text>
</g>
<!-- 55&#45;&gt;54 -->
<g id="edge58" class="edge">
<title>55&#45;&gt;54</title>
<path fill="none" stroke="#c0c0c0" stroke-width="2" d="M1917.9703,-290.9389C1882.0058,-278.0574 1833.7337,-260.7676 1799.8515,-248.6319"/>
<polygon fill="#c0c0c0" stroke="#c0c0c0" stroke-width="2" points="1800.8587,-245.275 1790.2641,-245.198 1798.4982,-251.865 1800.8587,-245.275"/>
</g>
<!-- 56 -->
<g id="node57" class="node">
<title>56</title>
<path fill="none" stroke="#56a2d8" stroke-width="2" stroke-dasharray="5,2" d="M1865.5,-180C1865.5,-180 1832.5,-180 1832.5,-180 1826.5,-180 1820.5,-174 1820.5,-168 1820.5,-168 1820.5,-156 1820.5,-156 1820.5,-150 1826.5,-144 1832.5,-144 1832.5,-144 1865.5,-144 1865.5,-144 1871.5,-144 1877.5,-150 1877.5,-156 1877.5,-156 1877.5,-168 1877.5,-168 1877.5,-174 1871.5,-180 1865.5,-180"/>
<text text-anchor="middle" x="1849" y="-159.5" font-family="sans" font-size="10.00" fill="#000000">stringtie</text>
</g>
<!-- 56&#45;&gt;1 -->
<g id="edge20" class="edge">
<title>56&#45;&gt;1</title>
<path fill="none" stroke="#c0c0c0" stroke-width="2" d="M1820.4895,-153.7668C1807.3495,-150.2587 1791.4872,-146.4241 1777,-144 1557.2603,-107.2321 1289.4023,-94.6949 1192.3532,-91.1813"/>
<polygon fill="#c0c0c0" stroke="#c0c0c0" stroke-width="2" points="1192.2874,-87.6769 1182.1706,-90.8234 1192.0414,-94.6726 1192.2874,-87.6769"/>
</g>
<!-- 57 -->
<g id="node58" class="node">
<title>57</title>
<path fill="none" stroke="#d8a456" stroke-width="2" stroke-dasharray="5,2" d="M1903,-252C1903,-252 1865,-252 1865,-252 1859,-252 1853,-246 1853,-240 1853,-240 1853,-228 1853,-228 1853,-222 1859,-216 1865,-216 1865,-216 1903,-216 1903,-216 1909,-216 1915,-222 1915,-228 1915,-228 1915,-240 1915,-240 1915,-246 1909,-252 1903,-252"/>
<text text-anchor="middle" x="1884" y="-231.5" font-family="sans" font-size="10.00" fill="#000000">sort_sam</text>
</g>
<!-- 57&#45;&gt;56 -->
<g id="edge59" class="edge">
<title>57&#45;&gt;56</title>
<path fill="none" stroke="#c0c0c0" stroke-width="2" d="M1875.168,-215.8314C1871.3014,-207.8771 1866.6794,-198.369 1862.4032,-189.5723"/>
<polygon fill="#c0c0c0" stroke="#c0c0c0" stroke-width="2" points="1865.4707,-187.8768 1857.9509,-180.4133 1859.1751,-190.9371 1865.4707,-187.8768"/>
</g>
<!-- 58 -->
<g id="node59" class="node">
<title>58</title>
<path fill="none" stroke="#56d8c9" stroke-width="2" stroke-dasharray="5,2" d="M2120,-329C2120,-329 2046,-329 2046,-329 2040,-329 2034,-323 2034,-317 2034,-317 2034,-300 2034,-300 2034,-294 2040,-288 2046,-288 2046,-288 2120,-288 2120,-288 2126,-288 2132,-294 2132,-300 2132,-300 2132,-317 2132,-317 2132,-323 2126,-329 2120,-329"/>
<text text-anchor="middle" x="2083" y="-317" font-family="sans" font-size="10.00" fill="#000000">hisat2</text>
<text text-anchor="middle" x="2083" y="-306" font-family="sans" font-size="10.00" fill="#000000">expansion: 1</text>
<text text-anchor="middle" x="2083" y="-295" font-family="sans" font-size="10.00" fill="#000000">sample: Leaf257</text>
</g>
<!-- 58&#45;&gt;57 -->
<g id="edge60" class="edge">
<title>58&#45;&gt;57</title>
<path fill="none" stroke="#c0c0c0" stroke-width="2" d="M2033.809,-290.0843C2000.2223,-277.5103 1956.257,-261.051 1924.6539,-249.2197"/>
<polygon fill="#c0c0c0" stroke="#c0c0c0" stroke-width="2" points="1925.8605,-245.9342 1915.2681,-245.7059 1923.4062,-252.4899 1925.8605,-245.9342"/>
</g>
<!-- 59 -->
<g id="node60" class="node">
<title>59</title>
<path fill="none" stroke="#56a2d8" stroke-width="2" stroke-dasharray="5,2" d="M2005.5,-180C2005.5,-180 1972.5,-180 1972.5,-180 1966.5,-180 1960.5,-174 1960.5,-168 1960.5,-168 1960.5,-156 1960.5,-156 1960.5,-150 1966.5,-144 1972.5,-144 1972.5,-144 2005.5,-144 2005.5,-144 2011.5,-144 2017.5,-150 2017.5,-156 2017.5,-156 2017.5,-168 2017.5,-168 2017.5,-174 2011.5,-180 2005.5,-180"/>
<text text-anchor="middle" x="1989" y="-159.5" font-family="sans" font-size="10.00" fill="#000000">stringtie</text>
</g>
<!-- 59&#45;&gt;1 -->
<g id="edge21" class="edge">
<title>59&#45;&gt;1</title>
<path fill="none" stroke="#c0c0c0" stroke-width="2" d="M1960.1001,-156.0969C1939.7422,-152.1359 1911.8025,-147.0953 1887,-144 1621.7569,-110.8986 1299.7214,-95.7874 1192.0502,-91.4088"/>
<polygon fill="#c0c0c0" stroke="#c0c0c0" stroke-width="2" points="1192.1492,-87.9101 1182.017,-91.0068 1191.8689,-94.9044 1192.1492,-87.9101"/>
</g>
<!-- 60 -->
<g id="node61" class="node">
<title>60</title>
<path fill="none" stroke="#d8a456" stroke-width="2" stroke-dasharray="5,2" d="M2073,-252C2073,-252 2035,-252 2035,-252 2029,-252 2023,-246 2023,-240 2023,-240 2023,-228 2023,-228 2023,-222 2029,-216 2035,-216 2035,-216 2073,-216 2073,-216 2079,-216 2085,-222 2085,-228 2085,-228 2085,-240 2085,-240 2085,-246 2079,-252 2073,-252"/>
<text text-anchor="middle" x="2054" y="-231.5" font-family="sans" font-size="10.00" fill="#000000">sort_sam</text>
</g>
<!-- 60&#45;&gt;59 -->
<g id="edge61" class="edge">
<title>60&#45;&gt;59</title>
<path fill="none" stroke="#c0c0c0" stroke-width="2" d="M2037.5978,-215.8314C2029.9585,-207.3694 2020.7317,-197.1489 2012.3793,-187.8971"/>
<polygon fill="#c0c0c0" stroke="#c0c0c0" stroke-width="2" points="2014.9221,-185.4906 2005.6231,-180.4133 2009.7262,-190.1813 2014.9221,-185.4906"/>
</g>
<!-- 61 -->
<g id="node62" class="node">
<title>61</title>
<path fill="none" stroke="#56d8c9" stroke-width="2" stroke-dasharray="5,2" d="M2236,-329C2236,-329 2162,-329 2162,-329 2156,-329 2150,-323 2150,-317 2150,-317 2150,-300 2150,-300 2150,-294 2156,-288 2162,-288 2162,-288 2236,-288 2236,-288 2242,-288 2248,-294 2248,-300 2248,-300 2248,-317 2248,-317 2248,-323 2242,-329 2236,-329"/>
<text text-anchor="middle" x="2199" y="-317" font-family="sans" font-size="10.00" fill="#000000">hisat2</text>
<text text-anchor="middle" x="2199" y="-306" font-family="sans" font-size="10.00" fill="#000000">expansion: 2</text>
<text text-anchor="middle" x="2199" y="-295" font-family="sans" font-size="10.00" fill="#000000">sample: Leaf257</text>
</g>
<!-- 61&#45;&gt;60 -->
<g id="edge62" class="edge">
<title>61&#45;&gt;60</title>
<path fill="none" stroke="#c0c0c0" stroke-width="2" d="M2158.9943,-287.9453C2138.7856,-277.5622 2114.3299,-264.9971 2094.107,-254.6067"/>
<polygon fill="#c0c0c0" stroke="#c0c0c0" stroke-width="2" points="2095.6379,-251.4584 2085.1437,-250.0014 2092.4388,-257.6846 2095.6379,-251.4584"/>
</g>
<!-- 62 -->
<g id="node63" class="node">
<title>62</title>
<path fill="none" stroke="#56a2d8" stroke-width="2" stroke-dasharray="5,2" d="M2205.5,-180C2205.5,-180 2172.5,-180 2172.5,-180 2166.5,-180 2160.5,-174 2160.5,-168 2160.5,-168 2160.5,-156 2160.5,-156 2160.5,-150 2166.5,-144 2172.5,-144 2172.5,-144 2205.5,-144 2205.5,-144 2211.5,-144 2217.5,-150 2217.5,-156 2217.5,-156 2217.5,-168 2217.5,-168 2217.5,-174 2211.5,-180 2205.5,-180"/>
<text text-anchor="middle" x="2189" y="-159.5" font-family="sans" font-size="10.00" fill="#000000">stringtie</text>
</g>
<!-- 62&#45;&gt;1 -->
<g id="edge22" class="edge">
<title>62&#45;&gt;1</title>
<path fill="none" stroke="#c0c0c0" stroke-width="2" d="M2160.3636,-158.3905C2128.0227,-154.4138 2073.8002,-148.0467 2027,-144 1704.2868,-116.096 1313.1741,-97.1691 1192.3511,-91.6599"/>
<polygon fill="#c0c0c0" stroke="#c0c0c0" stroke-width="2" points="1192.3076,-88.1544 1182.1593,-91.1979 1191.9905,-95.1472 1192.3076,-88.1544"/>
</g>
<!-- 63 -->
<g id="node64" class="node">
<title>63</title>
<path fill="none" stroke="#d8a456" stroke-width="2" stroke-dasharray="5,2" d="M2333,-252C2333,-252 2295,-252 2295,-252 2289,-252 2283,-246 2283,-240 2283,-240 2283,-228 2283,-228 2283,-222 2289,-216 2295,-216 2295,-216 2333,-216 2333,-216 2339,-216 2345,-222 2345,-228 2345,-228 2345,-240 2345,-240 2345,-246 2339,-252 2333,-252"/>
<text text-anchor="middle" x="2314" y="-231.5" font-family="sans" font-size="10.00" fill="#000000">sort_sam</text>
</g>
<!-- 63&#45;&gt;62 -->
<g id="edge63" class="edge">
<title>63&#45;&gt;62</title>
<path fill="none" stroke="#c0c0c0" stroke-width="2" d="M2282.7797,-216.0171C2265.7839,-206.2275 2244.6303,-194.0431 2226.7175,-183.7253"/>
<polygon fill="#c0c0c0" stroke="#c0c0c0" stroke-width="2" points="2228.0971,-180.4809 2217.6849,-178.5225 2224.6033,-186.5466 2228.0971,-180.4809"/>
</g>
<!-- 64 -->
<g id="node65" class="node">
<title>64</title>
<path fill="none" stroke="#56d8c9" stroke-width="2" stroke-dasharray="5,2" d="M2352,-329C2352,-329 2278,-329 2278,-329 2272,-329 2266,-323 2266,-317 2266,-317 2266,-300 2266,-300 2266,-294 2272,-288 2278,-288 2278,-288 2352,-288 2352,-288 2358,-288 2364,-294 2364,-300 2364,-300 2364,-317 2364,-317 2364,-323 2358,-329 2352,-329"/>
<text text-anchor="middle" x="2315" y="-317" font-family="sans" font-size="10.00" fill="#000000">hisat2</text>
<text text-anchor="middle" x="2315" y="-306" font-family="sans" font-size="10.00" fill="#000000">expansion: 3</text>
<text text-anchor="middle" x="2315" y="-295" font-family="sans" font-size="10.00" fill="#000000">sample: Leaf257</text>
</g>
<!-- 64&#45;&gt;63 -->
<g id="edge64" class="edge">
<title>64&#45;&gt;63</title>
<path fill="none" stroke="#c0c0c0" stroke-width="2" d="M2314.7214,-287.7476C2314.6158,-279.8767 2314.4936,-270.7743 2314.3802,-262.3232"/>
<polygon fill="#c0c0c0" stroke="#c0c0c0" stroke-width="2" points="2317.8771,-262.0608 2314.2431,-252.1087 2310.8777,-262.1548 2317.8771,-262.0608"/>
</g>
</g>
</svg>
